<?xml version="1.0" encoding="UTF-8"?>
<svg width="42px" height="50px" viewBox="0 0 42 50" version="1.1" xmlns="http://www.w3.org/2000/svg" xmlns:xlink="http://www.w3.org/1999/xlink">
    <!-- Generator: Sketch 52.5 (67469) - http://www.bohemiancoding.com/sketch -->
    <title>jacket</title>
    <desc>Created with Sketch.</desc>
    <g id="Page-1" stroke="none" stroke-width="1" fill="none" fill-rule="evenodd">
        <g id="FILTER-(NO-SELECTIONS)" transform="translate(-341.000000, -1011.000000)" fill="#9B9B9B" fill-rule="nonzero">
            <g id="jacket" transform="translate(341.000000, 1011.000000)">
                <path d="M41.3128333,20.7621832 C42.0360694,16.7300195 41.8456111,11.4062378 40.0594444,9.32680312 C38.3750694,7.36569201 33.6310139,5.59580897 32.3625556,5.14756335 L30.470125,1.35341131 C30.0539167,0.518615984 29.2169306,0 28.2859306,0 L13.7139722,0 C12.7830694,0 11.9459861,0.518615984 11.5296806,1.35331384 L9.63725,5.14756335 C8.36879167,5.5957115 3.62473611,7.36569201 1.94036111,9.32680312 C0.154194444,11.4062378 -0.0362638889,16.7300195 0.687069444,20.7621832 C0.469777778,21.6933723 -0.467055556,26.1256335 0.388111111,30.0136452 C0.338916667,30.762768 0.0833194444,34.8062378 0.182875,36.2892788 C0.265805556,37.5235867 0.646138889,38.5960039 1.27351389,39.4331384 L1.17765278,42.485575 C1.13458333,43.4492203 1.66181944,44.3505848 2.52223611,44.7834308 C2.53195833,44.7884016 2.54197222,44.7930799 2.55198611,44.7976608 L8.58131944,47.5168616 L8.58131944,48.2878168 C8.58131944,49.1782651 9.303875,49.9026316 10.1920972,49.9026316 L31.8075139,49.9026316 C32.6957361,49.9026316 33.4182917,49.1782651 33.4182917,48.2878168 L33.4182917,47.5168616 L39.4477222,44.7975634 C39.4578333,44.7929825 39.4675556,44.7883041 39.4774722,44.7833333 C40.3400278,44.3495127 40.8676528,43.4448343 40.8216667,42.4758285 L40.67,39.505848 C41.3307222,38.658577 41.7315694,37.5599415 41.8168333,36.2893762 C41.9163889,34.8063353 41.6607917,30.7628655 41.6115972,30.0137427 C42.4669583,26.1256335 41.530125,21.6933723 41.3128333,20.7621832 Z M39.7857639,20.4398635 L35.5472639,22.2049708 C35.4340972,21.688499 35.282625,21.1636452 35.0810833,20.6367446 L35.0810833,17.4548733 C35.0828333,17.305848 35.1717917,13.8947368 39.2513333,10.9281676 C40.179125,12.7769006 40.43025,16.8077973 39.7857639,20.4398635 Z M38.227875,9.74288499 C33.5789028,13.1858674 33.5224167,17.2708577 33.5224167,17.4502924 L33.5224167,20.002729 L21.7793333,20.002729 L21.7793333,12.2555556 C26.0924028,11.2690058 30.6787639,7.71725146 31.9679306,6.66442495 C33.5388472,7.22397661 36.6102917,8.47417154 38.227875,9.74288499 Z M33.744375,29.8998051 C34.0840694,31.0007797 34.7600556,33.8003899 33.9691528,36.67154 L21.7793333,36.67154 L21.7793333,29.8998051 L33.744375,29.8998051 Z M21.7793333,28.3371345 L21.7793333,21.5653996 L33.7556528,21.5653996 C34.7069722,24.4221248 34.0700694,27.2325536 33.7405833,28.3371345 L21.7793333,28.3371345 Z M29.0907361,2.10292398 C29.092875,2.10009747 29.0947222,2.09717349 29.0968611,2.09424951 L30.8319861,5.57309942 C29.488375,6.64922027 25.4804861,9.67582846 21.7793333,10.6484405 L21.7793333,8.71345029 C22.8985556,7.98615984 26.2633194,5.64619883 29.0907361,2.10292398 Z M10.031875,6.66442495 C11.3211389,7.71734893 15.9073056,11.2689084 20.220375,12.2554581 L20.220375,20.0026316 L8.47758333,20.0026316 L8.47758333,17.4502924 C8.47758333,17.2708577 8.42109722,13.1858674 3.77222222,9.74298246 C5.38902778,8.4754386 8.46076389,7.22465887 10.031875,6.66442495 Z M2.74847222,10.9281676 C6.82811111,13.8947368 6.91706944,17.3057505 6.91872222,17.4502924 L6.91872222,20.6367446 C6.71718056,21.1636452 6.56561111,21.6885965 6.45254167,22.2049708 L2.21404167,20.4398635 C1.56965278,16.8076998 1.82068056,12.7769006 2.74847222,10.9281676 Z M2.01629167,22.0495127 L6.21677778,23.7988304 C6.01922222,26.2920078 6.61568056,28.3701754 6.86904167,29.1176413 C6.73215278,29.5161793 6.49318056,30.2964912 6.31759722,31.3165692 L1.86569444,29.4625731 C1.31940278,26.7275828 1.72676389,23.6394737 2.01629167,22.0495127 Z M1.73823611,36.1842105 C1.66911111,35.1551657 1.79394444,32.6457115 1.87979167,31.1605263 L6.12772222,32.9296296 C6.04129167,34.3030214 6.136375,35.8965887 6.65165278,37.5101365 C6.56541667,38.0048733 6.34831944,39.3211501 6.25595833,40.5196881 L3.819375,39.5048733 C2.15619444,38.8122807 1.80152778,37.1270955 1.73823611,36.1842105 Z M3.20901389,43.3802144 C2.90431944,43.2209552 2.71872222,42.8977583 2.73515278,42.5528265 C2.73534722,42.5486355 2.73544444,42.5445419 2.73554167,42.5403509 L2.79202778,40.7406433 C2.93095833,40.8153996 3.07280556,40.8862573 3.22116667,40.9480507 L6.26188889,42.214425 C6.40772222,43.2895712 6.87993056,44.2827485 7.62893056,45.0648148 C7.86722222,45.3136452 8.12690278,45.5332359 8.40340278,45.7230019 L3.20901389,43.3802144 Z M20.2206667,48.3398635 L10.1922917,48.3398635 C10.1636111,48.3398635 10.140375,48.3163743 10.140375,48.2878168 L10.140375,46.4649123 C10.4677222,46.5332359 10.8046944,46.5688109 11.1477917,46.5688109 L20.2206667,46.5688109 L20.2206667,48.3398635 Z M20.2205694,45.0060429 L11.1476944,45.0060429 C9.25477778,45.0060429 7.77204167,43.4650097 7.77204167,41.4976608 C7.77204167,40.5045809 7.97893056,39.0588694 8.11154167,38.234308 L20.2205694,38.234308 L20.2205694,45.0060429 Z M20.2205694,36.6716374 L8.03075,36.6716374 C7.24441667,33.8112086 7.91875,31.0031189 8.25679167,29.8999025 L20.2205694,29.8999025 L20.2205694,36.6716374 Z M20.2205694,28.3371345 L8.25931944,28.3371345 C7.92954167,27.2315789 7.29302778,24.4216374 8.24415278,21.5653996 L20.2205694,21.5653996 L20.2205694,28.3371345 Z M20.2205694,10.6483431 C16.5235,9.67602339 12.5125,6.64883041 11.1680139,5.57290448 L12.9029444,2.09444444 C12.9050833,2.09727096 12.9069306,2.1002924 12.9091667,2.10311891 C15.7365833,5.64639376 19.1014444,7.98635478 20.2205694,8.71354776 L20.2205694,10.6483431 Z M14.4833889,1.56267057 L27.5163194,1.56267057 C24.9871806,4.58791423 22.0522361,6.66033138 20.9995139,7.35555556 C19.9474722,6.66159844 17.0172917,4.59415205 14.4833889,1.56267057 Z M31.859625,48.2877193 C31.859625,48.3163743 31.8361944,48.3397661 31.8077083,48.3397661 L21.7793333,48.3397661 L21.7793333,46.5687135 L30.8523056,46.5687135 C31.1953056,46.5687135 31.532375,46.5331384 31.859625,46.4648148 L31.859625,48.2877193 Z M30.8523056,45.0060429 L21.7793333,45.0060429 L21.7793333,38.234308 L33.8883611,38.234308 C34.0209722,39.0584795 34.2278611,40.5032164 34.2278611,41.4976608 C34.2278611,43.4650097 32.745125,45.0060429 30.8523056,45.0060429 Z M38.7908889,43.3802144 L33.5961111,45.7230994 C33.8727083,45.5332359 34.1324861,45.3136452 34.370875,45.0648148 C35.1197778,44.2827485 35.5921806,43.2895712 35.7379167,42.214425 L38.7785417,40.9481481 C38.9145556,40.8915205 39.0452222,40.8273879 39.1733611,40.7599415 L39.2649444,42.5531189 C39.2811806,42.8977583 39.0955833,43.2209552 38.7908889,43.3802144 Z M40.2615694,36.1842105 C40.198375,37.1269981 39.8437083,38.8122807 38.1805278,39.5048733 L35.7439444,40.5196881 C35.6515833,39.3209552 35.4343889,38.0048733 35.3481528,37.5101365 C35.8635278,35.8965887 35.9586111,34.3030214 35.8721806,32.9296296 L40.1201111,31.1605263 C40.2059583,32.645614 40.3307917,35.1548733 40.2615694,36.1842105 Z M40.1343056,29.4625731 L35.6824028,31.3165692 C35.5069167,30.2963938 35.2678472,29.5160819 35.1309583,29.1176413 C35.3843194,28.3701754 35.9806806,26.2919103 35.783125,23.7988304 L39.9837083,22.0495127 C40.2732361,23.6395712 40.6805972,26.7276803 40.1343056,29.4625731 Z" id="Shape"></path>
            </g>
        </g>
    </g>
</svg>