<?xml version="1.0" encoding="UTF-8"?>
<svg width="50px" height="42px" viewBox="0 0 50 42" version="1.1" xmlns="http://www.w3.org/2000/svg" xmlns:xlink="http://www.w3.org/1999/xlink">
    <!-- Generator: Sketch 52.5 (67469) - http://www.bohemiancoding.com/sketch -->
    <title>Shape</title>
    <desc>Created with Sketch.</desc>
    <g id="Page-1" stroke="none" stroke-width="1" fill="none" fill-rule="evenodd">
        <g id="FILTER-(NO-SELECTIONS)" transform="translate(-131.000000, -1018.000000)" fill="#9B9B9B" fill-rule="nonzero">
            <path d="M166.417188,1018 L161.209375,1018 C161.209375,1020.89535 158.87168,1023.2501 156,1023.2501 C153.12832,1023.2501 150.792188,1020.89535 150.792188,1018 L145.583594,1018 L131,1026.4 L135.167188,1037.9499 L141.417188,1035.8497 L141.417188,1060 L170.584375,1060 L170.584375,1035.8497 L176.834375,1037.9499 L181,1026.4 L166.417188,1018 Z M175.567871,1035.31137 L171.241992,1033.85788 L168.5,1032.93595 L168.5,1035.8498 L168.5,1057.89911 L143.5,1057.89911 L143.5,1035.8498 L143.5,1032.93595 L140.758008,1033.85798 L136.432129,1035.31147 L133.558105,1027.34517 L146.136719,1020.1002 L149.010742,1020.1002 C149.907227,1023.13631 152.697266,1025.3503 156,1025.3503 C159.303516,1025.3503 162.092871,1023.13631 162.988477,1020.1002 L165.863281,1020.1002 L178.442578,1027.34517 L175.567871,1035.31137 Z" id="Shape"></path>
        </g>
    </g>
</svg>