<?xml version="1.0" encoding="UTF-8"?>
<svg width="48px" height="18px" viewBox="0 0 48 18" version="1.1" xmlns="http://www.w3.org/2000/svg" xmlns:xlink="http://www.w3.org/1999/xlink">
    <!-- Generator: Sketch 52.5 (67469) - http://www.bohemiancoding.com/sketch -->
    <title>footwear</title>
    <desc>Created with Sketch.</desc>
    <g id="Page-1" stroke="none" stroke-width="1" fill="none" fill-rule="evenodd" opacity="0.900000036">
        <g id="FILTER-(NO-SELECTIONS)" transform="translate(-438.000000, -1031.000000)" stroke="#9B9B9B" stroke-width="2">
            <g id="footwear" transform="translate(439.000000, 1032.000000)">
                <path d="M7.10542736e-15,16 L7.54951657e-15,3 C-2.88657986e-14,2.33333333 0.333333333,1.66666667 1,1 C1.66666667,0.333333333 2.33333333,8.14163551e-15 3,5.32907052e-15 C3.66666667,6.14323407e-15 4.33333333,0.333333333 5,1 C6,2 7,3 7,3 C7,3 8,4 9,4 C10,4 12.5244141,4 13.6137695,4 C14.703125,4 15.0983887,3.98486328 16.8188477,3.3503418 C17.7278922,3.0150776 18.6674267,2.39455351 19.6374512,1.48876953 L21.5004883,5.32907052e-15 L24.5004883,1.48876953 L43.5427246,10.3134766 C44.8059082,11.1235352 45.4375,11.8293457 45.4375,12.4309082 C45.4375,13.333252 45.4375,14.043457 45.4375,14.7612305 C45.4375,15.4790039 44.2612305,16 43.5427246,16 C43.0637207,16 28.5494792,16 7.10542736e-15,16 Z" id="Path-4" stroke-linecap="round" stroke-linejoin="round"></path>
                <path d="M0.5,12.5 L45,12.5" id="Line" stroke-linecap="square"></path>
                <path d="M19.3295898,12.2033691 L24.4689941,1.56689453" id="Path-5"></path>
                <path d="M23.5373535,12.3383789 L27.9504395,3.19384766" id="Path-5"></path>
                <path d="M27.6743164,12.3171387 L31.1005859,4.97021484" id="Path-5"></path>
            </g>
        </g>
    </g>
</svg>