<?xml version="1.0" encoding="UTF-8"?>
<svg width="50px" height="22px" viewBox="0 0 50 22" version="1.1" xmlns="http://www.w3.org/2000/svg" xmlns:xlink="http://www.w3.org/1999/xlink">
    <!-- Generator: Sketch 52.5 (67469) - http://www.bohemiancoding.com/sketch -->
    <title>Shape</title>
    <desc>Created with Sketch.</desc>
    <g id="Page-1" stroke="none" stroke-width="1" fill="none" fill-rule="evenodd">
        <g id="FILTER-(NO-SELECTIONS)" transform="translate(-535.000000, -1024.000000)" fill="#9B9B9B" fill-rule="nonzero">
            <g id="sunglasses" transform="translate(535.000000, 1024.000000)">
                <path d="M37.4361199,21.9709286 C33.3507886,21.9709286 29.7804416,19.7332143 27.8951104,16.423 L26.420347,15.4037714 C25.8835962,15.0327571 25.7501577,14.2984286 26.1227129,13.7636714 C26.2725552,13.5485429 26.481388,13.3984714 26.7124606,13.3200571 C26.6362776,12.9622429 26.5777603,12.5981429 26.5376972,12.2285429 L23.4045741,12.2285429 C23.364511,12.5992429 23.305836,12.9638143 23.2293375,13.3224143 C23.457571,13.4014571 23.6635647,13.5507429 23.8118297,13.7636714 C24.1842271,14.2984286 24.0509464,15.0327571 23.5141956,15.4037714 L22.0523659,16.4142 C20.1682965,19.7288143 16.5951104,21.9710857 12.5064669,21.9710857 C6.86167192,21.9710857 2.19968454,17.6985286 1.60804416,12.2285429 L1.1829653,12.2285429 C0.529652997,12.2285429 0,11.7008571 0,11.0499714 C0,10.3990857 0.529652997,9.8714 1.1829653,9.8714 L1.60788644,9.8714 C2.19952681,4.40141429 6.8615142,0.128857143 12.5063091,0.128857143 C18.1511041,0.128857143 22.8129338,4.40141429 23.4045741,9.8714 L26.5376972,9.8714 C27.1293375,4.40141429 31.7913249,0.128857143 37.4361199,0.128857143 C43.0809148,0.128857143 47.7429022,4.40141429 48.3345426,9.8714 L48.7594637,9.8714 C49.412776,9.8714 49.942429,10.3990857 49.942429,11.0499714 C49.942429,11.7008571 49.412776,12.2285429 48.7594637,12.2285429 L48.3345426,12.2285429 C47.7427445,17.6982143 43.0809148,21.9709286 37.4361199,21.9709286 Z M37.4361199,2.486 C32.6963722,2.486 28.8402208,6.32767143 28.8402208,11.0499714 C28.8402208,15.7722714 32.6962145,19.6139429 37.4361199,19.6139429 C42.1214511,19.6139429 45.9433754,15.8598 46.0304416,11.2123 C46.0231861,11.1593429 46.0194006,11.1051286 46.0194006,11.0501286 C46.0194006,10.9951286 46.0231861,10.9409143 46.0304416,10.8879571 C45.9432177,6.23998571 42.1214511,2.486 37.4361199,2.486 Z M3.91198738,11.2115143 C3.99858044,15.8594857 7.82066246,19.6137857 12.5063091,19.6137857 C17.2460568,19.6137857 21.1020505,15.7721143 21.1020505,11.0498143 C21.1020505,6.32751429 17.2460568,2.486 12.5063091,2.486 C7.82066246,2.486 3.99873817,6.2403 3.91198738,10.8882714 C3.9192429,10.9410714 3.92302839,10.9951286 3.92302839,11.0499714 C3.92302839,11.1048143 3.9192429,11.1587143 3.91198738,11.2115143 Z" id="Shape"></path>
            </g>
        </g>
    </g>
</svg>