<?xml version="1.0" encoding="UTF-8"?>
<svg width="33px" height="50px" viewBox="0 0 33 50" version="1.1" xmlns="http://www.w3.org/2000/svg" xmlns:xlink="http://www.w3.org/1999/xlink">
    <!-- Generator: Sketch 52.5 (67469) - http://www.bohemiancoding.com/sketch -->
    <title>pants</title>
    <desc>Created with Sketch.</desc>
    <g id="Page-1" stroke="none" stroke-width="1" fill="none" fill-rule="evenodd">
        <g id="FILTER-(NO-SELECTIONS)" transform="translate(-242.000000, -1011.000000)" fill="#9B9B9B" fill-rule="nonzero">
            <g id="pants" transform="translate(242.000000, 1011.000000)">
                <path d="M31.1279375,0.874804688 C31.109375,0.386425781 30.7058125,0 30.21425,0 L2.78575,0 C2.2941875,0 1.890625,0.386425781 1.87216071,0.874804688 L0.0435089286,49.0567383 C0.0341785714,49.3035156 0.126107143,49.543457 0.298669643,49.7214844 C0.471035714,49.8995117 0.708714286,50 0.957196429,50 L12.8428929,50 C13.3134375,50 13.7071786,49.6449219 13.7529464,49.1792969 L15.9013839,27.2820312 C16.1062589,25.1927734 16.3191875,23.8543945 16.5,23.0015625 C16.6806161,23.8543945 16.8935446,25.1926758 17.0984196,27.2820312 L19.2470536,49.1792969 C19.2928214,49.6449219 19.6865625,50 20.1571071,50 L32.0428036,50 C32.2911875,50 32.5289643,49.8994141 32.7013304,49.7214844 C32.8738929,49.543457 32.9658214,49.3035156 32.9564911,49.0567383 L31.1279375,0.874804688 Z M24.7285893,1.81816406 L29.3339554,1.81816406 L29.4029018,3.63632812 L24.7285893,3.63632812 L24.7285893,1.81816406 Z M17.4142768,1.81816406 L22.9000357,1.81816406 L22.9000357,3.63632812 L17.4142768,3.63632812 L17.4142768,1.81816406 Z M9.1856875,1.81816406 L15.5857232,1.81816406 L15.5857232,3.63632812 L9.1856875,3.63632812 L9.1856875,1.81816406 Z M3.66604464,1.81816406 L7.35713393,1.81816406 L7.35713393,3.63632812 L3.59709821,3.63632812 L3.66604464,1.81816406 Z M20.986625,48.1818359 L18.9185268,27.1053711 C18.7107054,24.9875977 18.4660536,23.3383789 18.1917411,22.2036133 C17.9981607,21.4036133 17.6379107,19.9143555 16.5,19.9143555 C15.3620893,19.9143555 15.0017411,21.403418 14.8082589,22.2032227 C14.5336518,23.3380859 14.2892946,24.9873047 14.0812768,27.1054687 L12.0134732,48.1819336 L1.9064375,48.1820312 L3.14708036,15.4924805 C3.21514286,15.4953125 3.28674107,15.4974609 3.36511607,15.4974609 C4.10486607,15.4974609 5.27803571,15.3443359 6.40170536,14.5537109 C7.88425,13.5109375 8.81777679,11.7161133 9.17645536,9.21953125 C9.24785714,8.72246094 8.90057143,8.26191406 8.4005625,8.19091797 C7.90173214,8.12011719 7.43757143,8.46533203 7.36616964,8.96230469 C7.08360714,10.9294922 6.41172321,12.3056641 5.36908036,13.0526367 C4.52610714,13.6567383 3.64188393,13.7005859 3.21583036,13.6787109 L3.52795536,5.45458984 L7.35703571,5.45458984 L9.18558929,5.45458984 L15.585625,5.45458984 L17.4141786,5.45458984 L22.8999375,5.45458984 L24.7284911,5.45458984 L29.4718482,5.45458984 L29.7839732,13.6786133 C29.3582143,13.7006836 28.4739911,13.6571289 27.6307232,13.0527344 C26.5880804,12.3057617 25.9161964,10.9295898 25.6336339,8.96240234 C25.5622321,8.46533203 25.0983661,8.12060547 24.5992411,8.19101562 C24.0992321,8.26201172 23.7519464,8.72255859 23.8233482,9.21962891 C24.1820268,11.7162109 25.1155536,13.5109375 26.5980982,14.5538086 C27.7219643,15.3445312 28.8949375,15.4975586 29.6346875,15.4975586 C29.7130625,15.4975586 29.7846607,15.4954102 29.8527232,15.4925781 L31.0933661,48.1820312 L20.986625,48.1820312 L20.986625,48.1818359 Z" id="Shape"></path>
            </g>
        </g>
    </g>
</svg>