<?xml version="1.0" encoding="UTF-8"?>
<svg width="50px" height="50px" viewBox="0 0 50 50" version="1.1" xmlns="http://www.w3.org/2000/svg" xmlns:xlink="http://www.w3.org/1999/xlink">
    <!-- Generator: Sketch 52.5 (67469) - http://www.bohemiancoding.com/sketch -->
    <title>Shape</title>
    <desc>Created with Sketch.</desc>
    <g id="Page-1" stroke="none" stroke-width="1" fill="none" fill-rule="evenodd">
        <g id="FILTER-(NO-SELECTIONS)" transform="translate(-638.000000, -1010.000000)" fill="#9B9B9B" fill-rule="nonzero">
            <g id="proxyIcon" transform="translate(663.000000, 1035.000000) scale(-1, 1) translate(-663.000000, -1035.000000) translate(638.000000, 1010.000000)">
                <path d="M48.0336207,27.6234914 L28.6478448,8.22693966 C27.6241379,7.20323276 26.2556034,6.63211207 24.8116379,6.63211207 C24.6931034,6.63211207 24.574569,6.63211207 24.4560345,6.64288793 L10.4366379,7.56961207 C8.91724138,7.66659483 7.6887931,8.8950431 7.59181034,10.4144397 L7.25775862,15.3928879 C6.54655172,14.9834052 5.86767241,14.4661638 5.25344828,13.8519397 C3.75560345,12.3540948 2.82887931,10.4898707 2.63491379,8.59331897 C2.45172414,6.79375 2.96896552,5.18814655 4.08965517,4.0674569 C6.47112069,1.68599138 10.8568966,2.21400862 13.8849138,5.23125 C14.3913793,5.73771552 15.2103448,5.73771552 15.7168103,5.23125 C16.2232759,4.72478448 16.2232759,3.90581897 15.7168103,3.39935345 C11.6650862,-0.620043103 5.63060345,-1.13728448 2.24698276,2.24633621 C0.565948276,3.92737069 -0.209913793,6.26573276 0.0487068966,8.86271552 C0.296551724,11.3519397 1.49267241,13.7765086 3.41077586,15.6946121 C4.48836207,16.7721983 5.73836207,17.6234914 7.0637931,18.2053879 L6.65431034,24.4446121 C6.54655172,26.0071121 7.12844828,27.5372845 8.23836207,28.6471983 L27.6349138,48.04375 C28.8633621,49.2721983 30.4905172,49.9403017 32.225431,49.9403017 C33.9603448,49.9403017 35.5875,49.2614224 36.8159483,48.04375 L48.0551724,36.8045259 C49.2836207,35.5760776 49.9517241,33.9489224 49.9517241,32.2140086 C49.9409483,30.468319 49.262069,28.8411638 48.0336207,27.6234914 Z M46.2125,34.9618534 L34.9625,46.2118534 C34.2297414,46.9446121 33.2491379,47.3540948 32.2038793,47.3540948 C31.1586207,47.3540948 30.1780172,46.9446121 29.4452586,46.2118534 L10.0487069,26.8153017 C9.46681034,26.2334052 9.16508621,25.4359914 9.21896552,24.6170259 L9.59612069,18.9704741 C9.81163793,19.0028017 10.0271552,19.0351293 10.2426724,19.056681 C10.5659483,19.0890086 10.8892241,19.1105603 11.2017241,19.1105603 C13.4107759,19.1105603 15.3827586,18.3346983 16.8482759,16.869181 C17.3547414,16.3627155 17.3547414,15.54375 16.8482759,15.0372845 C16.3418103,14.530819 15.5228448,14.530819 15.0163793,15.0372845 C13.8956897,16.1579741 12.2900862,16.6752155 10.4905172,16.4920259 C10.2426724,16.4704741 10.0056034,16.4273707 9.76853448,16.3842672 L10.1564655,10.6084052 C10.1672414,10.3713362 10.3612069,10.1881466 10.5982759,10.1665948 L24.6176724,9.23987069 C24.6823276,9.23987069 24.7469828,9.22909483 24.8116379,9.22909483 C25.5659483,9.22909483 26.2987069,9.53081897 26.8267241,10.0588362 L46.2125,29.4446121 C46.9452586,30.1773707 47.3547414,31.1579741 47.3547414,32.2032328 C47.3547414,33.2484914 46.9452586,34.2290948 46.2125,34.9618534 Z" id="Shape"></path>
            </g>
        </g>
    </g>
</svg>